# xmcd
#
# Track frame offsets: 
#        150
#        9624
#        22794
#        36195
#        50168
#        64859
#        78864
#        84793
#        98008
#        115063
#        129406
#        145991
#        161213
#        174777
#        190175
#        206363
#        223602
#
# Disc length: 3235 seconds
#
# Revision: 0
# Processed by: cddbd v1.5.2PL0 Copyright (c) Steve Scherf et al.
# Submitted via: ExactAudioCopy v0.90b4
#
DISCID=d70ca111
DTITLE=Xtreme - Haciendo Historia
DYEAR=2006
DGENRE=Latin
TTITLE0=Game 7 (Intro)
TTITLE1=Shorty, Shorty
TTITLE2=Hiliana
TTITLE3=Adonde Se Fue
TTITLE4=Her Broken Heart
TTITLE5=Es Amor
TTITLE6=I'm Sorry (Interlude)
TTITLE7=Disculpame
TTITLE8=The Way I Feel
TTITLE9=Te Vas De Aqui
TTITLE10=Mientes
TTITLE11=Adonde Se Fue (R&B/Pop)
TTITLE12=Tu
TTITLE13=Si La Ves
TTITLE14=My Fantasy (f. Sofla Kingz)
TTITLE15=Honey, I Do
TTITLE16=Overtime (Outro)
EXTD=
EXTT0=
EXTT1=
EXTT2=
EXTT3=
EXTT4=
EXTT5=
EXTT6=
EXTT7=
EXTT8=
EXTT9=
EXTT10=
EXTT11=
EXTT12=
EXTT13=
EXTT14=
EXTT15=
EXTT16=
PLAYORDER=
